<?xml version="1.0" ?><!DOCTYPE svg  PUBLIC '-//W3C//DTD SVG 1.1//EN'  'http://www.w3.org/Graphics/SVG/1.1/DTD/svg11.dtd'><svg enable-background="new 0 0 128 128" id="Layer_1" version="1.1" viewBox="0 0 128 128" xml:space="preserve" xmlns="http://www.w3.org/2000/svg" xmlns:xlink="http://www.w3.org/1999/xlink"><path d="M112,105H21.1c-2.8,0-5.1-2.6-5.1-5.4V56.4c0-2.8,2.3-5.4,5.1-5.4H112" fill="#C1C1C0"/><path d="M112,105H21.1c-2.8,0-5.1-2.6-5.1-5.4V56.4  c0-2.8,2.3-5.4,5.1-5.4H112" fill="none" stroke="#3D3D3D" stroke-miterlimit="10" stroke-width="2"/><path d="M120,99.9c0,2.8-2.3,5.1-5.1,5.1H25.1c-2.8,0-5.1-2.3-5.1-5.1V56.1c0-2.8,2.3-5.1,5.1-5.1h89.8  c2.8,0,5.1,2.3,5.1,5.1V99.9z" fill="#E2E2E2"/><path d="M120,99.9c0,2.8-2.3,5.1-5.1,5.1H25.1  c-2.8,0-5.1-2.3-5.1-5.1V56.1c0-2.8,2.3-5.1,5.1-5.1h89.8c2.8,0,5.1,2.3,5.1,5.1V99.9z" fill="none" stroke="#3D3D3D" stroke-miterlimit="10" stroke-width="2"/><line fill="none" stroke="#3D3D3D" stroke-miterlimit="10" stroke-width="2" x1="26" x2="114" y1="60" y2="60"/><rect fill="#53AF80" height="37" width="36" x="32" y="23"/><rect fill="none" height="37" stroke="#3D3D3D" stroke-miterlimit="10" stroke-width="2" width="36" x="32" y="23"/><rect fill="#53AF80" height="37" width="34" x="37" y="23"/><rect fill="none" height="37" stroke="#3D3D3D" stroke-miterlimit="10" stroke-width="2" width="34" x="37" y="23"/><rect fill="#53AF80" height="37" width="35" x="42" y="23"/><rect fill="#8DCEA8" height="32" width="25" x="46" y="28"/><path d="M68.1,60.3c0.8-1.4,1.2-3,1.2-4.7c0-5.5-4.5-10-10-10s-10,4.5-10,10c0,1.8,0.5,3.5,1.3,4.9" fill="#53AF80"/><rect fill="none" height="37" stroke="#3D3D3D" stroke-miterlimit="10" stroke-width="2" width="35" x="42" y="23"/><path d="M71.6,36.5c-4.7,0-8.5-3.5-8.5-8.5H72L71.6,36.5z" fill="#53AF80"/><path d="M55.1,28c0,5-4.1,9-9.1,9v-9H55.1z" fill="#53AF80"/><rect fill="none" height="32" stroke="#3D3D3D" stroke-miterlimit="10" stroke-width="2" width="25" x="46" y="28"/><path d="M55.1,28.4c0,4.7-3.8,8.5-8.5,8.5" fill="none" stroke="#3D3D3D" stroke-miterlimit="10" stroke-width="2"/><path d="M63.1,28.4c0,4.7,3.8,8.5,8.5,8.5" fill="none" stroke="#3D3D3D" stroke-miterlimit="10" stroke-width="2"/><path d="M95.1,74.2c0-3.7,3-6.7,6.7-6.7c3.7,0,6.7,3,6.7,6.7" fill="#8DCEA8"/><path d="M95.1,74.2c0-3.7,3-6.7,6.7-6.7c3.7,0,6.7,3,6.7,6.7  " fill="none" stroke="#3D3D3D" stroke-miterlimit="10" stroke-width="2"/><path d="M85.1,74.2c0-4.4,3.6-8,8-8s8,3.6,8,8" fill="#8DCEA8"/><path d="M85.1,74.2c0-4.4,3.6-8,8-8s8,3.6,8,8" fill="none" stroke="#3D3D3D" stroke-miterlimit="10" stroke-width="2"/><path d="M68.1,60.3c0.8-1.4,1.2-3,1.2-4.7  c0-5.5-4.5-10-10-10s-10,4.5-10,10c0,1.8,0.5,3.5,1.3,4.9" fill="none" stroke="#3D3D3D" stroke-miterlimit="10" stroke-width="2"/><path d="M25,75h33.6c2.8,0,4.4,0.8,4.4,3.6V100" fill="none" stroke="#3D3D3D" stroke-miterlimit="10" stroke-width="2"/><path d="M25,87h33.6c2.8,0,4.4,1.5,4.4,4.3v8.7" fill="none" stroke="#3D3D3D" stroke-miterlimit="10" stroke-width="2"/><path d="M114,75H80.2c-2.8,0-4.2,0.8-4.2,3.6V100" fill="none" stroke="#3D3D3D" stroke-miterlimit="10" stroke-width="2"/><line fill="none" stroke="#3D3D3D" stroke-dasharray="3,4" stroke-linecap="square" stroke-linejoin="round" stroke-miterlimit="10" stroke-width="2" x1="69" x2="69" y1="63" y2="102"/><path d="M10,82.9c-2.5,0-4.6-1.5-4.6-4c0-2.5,1.8-4,4.3-4H18v8.1L10,82.9z" fill="#E2E2E2"/><path d="M10,82.9c-2.5,0-4.6-1.5-4.6-4c0-2.5,1.8-4,4.3-4H18  v8.1L10,82.9z" fill="none" stroke="#3D3D3D" stroke-miterlimit="10" stroke-width="2"/><circle cx="9.7" cy="78.6" fill="#3D3D3D" r="1.9"/><rect fill="#FFFFFF" height="20" width="27" x="81" y="40"/><rect fill="none" height="20" stroke="#3D3D3D" stroke-miterlimit="10" stroke-width="2" width="27" x="81" y="40"/><line fill="none" stroke="#3D3D3D" stroke-miterlimit="10" stroke-width="2" x1="87" x2="102" y1="49" y2="49"/><line fill="none" stroke="#3D3D3D" stroke-miterlimit="10" stroke-width="2" x1="87" x2="102" y1="53" y2="53"/><line fill="none" stroke="#3D3D3D" stroke-miterlimit="10" stroke-width="2" x1="87" x2="102" y1="57" y2="57"/><path d="M53.2,65H36c-1.2,0-2,1-2,2.2V75h21v-7.8C55,66,54.4,65,53.2,65z" fill="#53AF80"/><path d="M53,65H36c-1.1,0-2,0.9-2,2v8h21v-8  C55,65.9,54.1,65,53,65z" fill="none" stroke="#3D3D3D" stroke-miterlimit="10" stroke-width="2"/><rect fill="#3D3D3D" height="11" width="6" x="38" y="65"/></svg>